<mxfile host="app.diagrams.net" modified="2024-05-16T16:47:54.167Z" agent="Mozilla/5.0 (Windows NT 10.0; Win64; x64) AppleWebKit/537.36 (KHTML, like Gecko) Chrome/124.0.0.0 Safari/537.36 Edg/124.0.0.0" etag="yDtu3PcqBsQMbyBsiMWP" version="24.2.5" type="github">
  <diagram name="demo_app" id="_hJvVX3Okxszh-vaEBI8">
    <mxGraphModel dx="1386" dy="751" grid="1" gridSize="10" guides="1" tooltips="1" connect="1" arrows="1" fold="1" page="1" pageScale="1" pageWidth="827" pageHeight="1169" math="0" shadow="0">
      <root>
        <mxCell id="0" />
        <mxCell id="1" parent="0" />
        <mxCell id="PnKoHTwbCrGRn8m2TNXY-10" value="demo app" style="rounded=0;whiteSpace=wrap;html=1;verticalAlign=top;fillColor=#cce5ff;strokeColor=#36393d;" vertex="1" parent="1">
          <mxGeometry x="240" y="160" width="520" height="350" as="geometry" />
        </mxCell>
        <mxCell id="PnKoHTwbCrGRn8m2TNXY-1" value="frontend" style="rounded=0;whiteSpace=wrap;html=1;verticalAlign=top;" vertex="1" parent="1">
          <mxGeometry x="280" y="210" width="120" height="280" as="geometry" />
        </mxCell>
        <mxCell id="PnKoHTwbCrGRn8m2TNXY-2" value="map services" style="rounded=0;whiteSpace=wrap;html=1;verticalAlign=top;" vertex="1" parent="1">
          <mxGeometry x="440" y="210" width="120" height="280" as="geometry" />
        </mxCell>
        <mxCell id="PnKoHTwbCrGRn8m2TNXY-3" value="data sources" style="rounded=0;whiteSpace=wrap;html=1;verticalAlign=top;" vertex="1" parent="1">
          <mxGeometry x="600" y="210" width="120" height="280" as="geometry" />
        </mxCell>
        <mxCell id="PnKoHTwbCrGRn8m2TNXY-12" style="edgeStyle=orthogonalEdgeStyle;rounded=0;orthogonalLoop=1;jettySize=auto;html=1;entryX=0;entryY=0.5;entryDx=0;entryDy=0;" edge="1" parent="1" source="PnKoHTwbCrGRn8m2TNXY-4" target="PnKoHTwbCrGRn8m2TNXY-7">
          <mxGeometry relative="1" as="geometry" />
        </mxCell>
        <mxCell id="PnKoHTwbCrGRn8m2TNXY-21" value="9090" style="edgeLabel;html=1;align=center;verticalAlign=middle;resizable=0;points=[];" vertex="1" connectable="0" parent="PnKoHTwbCrGRn8m2TNXY-12">
          <mxGeometry x="0.35" relative="1" as="geometry">
            <mxPoint as="offset" />
          </mxGeometry>
        </mxCell>
        <mxCell id="PnKoHTwbCrGRn8m2TNXY-4" value="react app" style="rounded=0;whiteSpace=wrap;html=1;fillColor=#ffcccc;strokeColor=#36393d;" vertex="1" parent="1">
          <mxGeometry x="290" y="270" width="100" height="40" as="geometry" />
        </mxCell>
        <mxCell id="PnKoHTwbCrGRn8m2TNXY-5" value="leaflet.js" style="rounded=0;whiteSpace=wrap;html=1;fillColor=#ffcc99;strokeColor=#36393d;" vertex="1" parent="1">
          <mxGeometry x="290" y="390" width="100" height="40" as="geometry" />
        </mxCell>
        <mxCell id="PnKoHTwbCrGRn8m2TNXY-6" value="npm server" style="rounded=0;whiteSpace=wrap;html=1;" vertex="1" parent="1">
          <mxGeometry x="290" y="330" width="100" height="40" as="geometry" />
        </mxCell>
        <mxCell id="PnKoHTwbCrGRn8m2TNXY-14" style="edgeStyle=orthogonalEdgeStyle;rounded=0;orthogonalLoop=1;jettySize=auto;html=1;" edge="1" parent="1" source="PnKoHTwbCrGRn8m2TNXY-7" target="PnKoHTwbCrGRn8m2TNXY-9">
          <mxGeometry relative="1" as="geometry" />
        </mxCell>
        <mxCell id="PnKoHTwbCrGRn8m2TNXY-20" value="storage" style="edgeLabel;html=1;align=center;verticalAlign=middle;resizable=0;points=[];" vertex="1" connectable="0" parent="PnKoHTwbCrGRn8m2TNXY-14">
          <mxGeometry x="0.0667" relative="1" as="geometry">
            <mxPoint as="offset" />
          </mxGeometry>
        </mxCell>
        <mxCell id="PnKoHTwbCrGRn8m2TNXY-25" style="edgeStyle=orthogonalEdgeStyle;rounded=0;orthogonalLoop=1;jettySize=auto;html=1;entryX=0;entryY=0.5;entryDx=0;entryDy=0;" edge="1" parent="1" source="PnKoHTwbCrGRn8m2TNXY-7" target="PnKoHTwbCrGRn8m2TNXY-8">
          <mxGeometry relative="1" as="geometry" />
        </mxCell>
        <mxCell id="PnKoHTwbCrGRn8m2TNXY-26" value="5432" style="edgeLabel;html=1;align=center;verticalAlign=middle;resizable=0;points=[];" vertex="1" connectable="0" parent="PnKoHTwbCrGRn8m2TNXY-25">
          <mxGeometry x="0.0667" y="-1" relative="1" as="geometry">
            <mxPoint as="offset" />
          </mxGeometry>
        </mxCell>
        <mxCell id="PnKoHTwbCrGRn8m2TNXY-7" value="geoserwer" style="rounded=0;whiteSpace=wrap;html=1;fillColor=#cdeb8b;strokeColor=#36393d;" vertex="1" parent="1">
          <mxGeometry x="450" y="330" width="100" height="40" as="geometry" />
        </mxCell>
        <mxCell id="PnKoHTwbCrGRn8m2TNXY-8" value="postgis" style="rounded=0;whiteSpace=wrap;html=1;fillColor=#e1d5e7;strokeColor=#9673a6;" vertex="1" parent="1">
          <mxGeometry x="610" y="300" width="100" height="40" as="geometry" />
        </mxCell>
        <mxCell id="PnKoHTwbCrGRn8m2TNXY-9" value="gpkg, fgb files" style="rounded=0;whiteSpace=wrap;html=1;" vertex="1" parent="1">
          <mxGeometry x="610" y="360" width="100" height="40" as="geometry" />
        </mxCell>
        <mxCell id="PnKoHTwbCrGRn8m2TNXY-15" value="web map client" style="shape=umlActor;verticalLabelPosition=bottom;verticalAlign=top;html=1;outlineConnect=0;" vertex="1" parent="1">
          <mxGeometry x="110" y="370" width="30" height="60" as="geometry" />
        </mxCell>
        <mxCell id="PnKoHTwbCrGRn8m2TNXY-17" style="edgeStyle=orthogonalEdgeStyle;rounded=0;orthogonalLoop=1;jettySize=auto;html=1;entryX=0;entryY=0;entryDx=0;entryDy=0;" edge="1" parent="1" source="PnKoHTwbCrGRn8m2TNXY-16" target="PnKoHTwbCrGRn8m2TNXY-7">
          <mxGeometry relative="1" as="geometry">
            <Array as="points">
              <mxPoint x="125" y="180" />
              <mxPoint x="430" y="180" />
              <mxPoint x="430" y="330" />
            </Array>
          </mxGeometry>
        </mxCell>
        <mxCell id="PnKoHTwbCrGRn8m2TNXY-24" value="ows" style="edgeLabel;html=1;align=center;verticalAlign=middle;resizable=0;points=[];" vertex="1" connectable="0" parent="PnKoHTwbCrGRn8m2TNXY-17">
          <mxGeometry x="-0.8716" y="-1" relative="1" as="geometry">
            <mxPoint as="offset" />
          </mxGeometry>
        </mxCell>
        <mxCell id="PnKoHTwbCrGRn8m2TNXY-16" value="gis system client" style="shape=umlActor;verticalLabelPosition=bottom;verticalAlign=top;html=1;outlineConnect=0;" vertex="1" parent="1">
          <mxGeometry x="110" y="250" width="30" height="60" as="geometry" />
        </mxCell>
        <mxCell id="PnKoHTwbCrGRn8m2TNXY-18" style="edgeStyle=orthogonalEdgeStyle;rounded=0;orthogonalLoop=1;jettySize=auto;html=1;entryX=0.008;entryY=0.289;entryDx=0;entryDy=0;entryPerimeter=0;" edge="1" parent="1" source="PnKoHTwbCrGRn8m2TNXY-15" target="PnKoHTwbCrGRn8m2TNXY-1">
          <mxGeometry relative="1" as="geometry" />
        </mxCell>
        <mxCell id="PnKoHTwbCrGRn8m2TNXY-23" value="web browser" style="edgeLabel;html=1;align=center;verticalAlign=middle;resizable=0;points=[];" vertex="1" connectable="0" parent="PnKoHTwbCrGRn8m2TNXY-18">
          <mxGeometry x="-0.7281" relative="1" as="geometry">
            <mxPoint as="offset" />
          </mxGeometry>
        </mxCell>
      </root>
    </mxGraphModel>
  </diagram>
</mxfile>
